<?xml version="1.0" encoding="utf-8"?>
<svg viewBox="0 0 40 40" fill="none" width="40px" height="40px" preserveAspectRatio="xMinYMin" xmlns="http://www.w3.org/2000/svg">
  <path style="fill: rgb(51, 51, 51); white-space: pre;"/>
  <g transform="matrix(4.82642, 0, 0, 6.384851, 6.649786, -31.013308)" style="">
    <path d="M 3.801 2.204 Q 3.793 2.204 3.788 2.199 Q 3.783 2.194 3.783 2.186 L 3.783 1.939 Q 3.783 1.932 3.788 1.926 Q 3.793 1.921 3.801 1.921 Q 3.808 1.921 3.814 1.926 Q 3.819 1.932 3.819 1.939 L 3.819 2.186 Q 3.819 2.194 3.814 2.199 Q 3.808 2.204 3.801 2.204 Z" transform="matrix(9.686077, 0, 0, 6.030944, -31.492573, -3.247591)" style="fill: rgb(63, 182, 224); white-space: pre;"/>
  </g>
  <ellipse style="stroke: rgb(0, 0, 0); fill: rgb(63, 182, 224); stroke-width: 0px;" cx="32.315" cy="21.173" rx="0.936" ry="0.903"/>
  <path style="fill: rgb(51, 51, 51); white-space: pre;"/>
  <g transform="matrix(6.579731, 0, 0, 5.749002, -9.546442, -25.290089)" style="">
    <path d="M 4.412 10.159 C 4.372 10.159 4.34 10.148 4.315 10.123 C 4.29 10.099 4.278 10.07 4.278 10.035 C 4.278 10.02 4.283 10.001 4.293 9.979 L 5.059 8.307 C 5.075 8.275 5.097 8.247 5.126 8.226 C 5.156 8.205 5.191 8.195 5.232 8.195 L 5.262 8.195 C 5.304 8.195 5.34 8.205 5.368 8.226 C 5.397 8.247 5.419 8.275 5.435 8.307 L 6.19 9.979 C 6.2 10.001 6.205 10.02 6.205 10.035 C 6.205 10.07 6.192 10.099 6.167 10.123 C 6.142 10.148 6.11 10.159 6.07 10.159 C 6.043 10.159 6.017 10.153 5.994 10.138 C 5.972 10.124 5.955 10.105 5.942 10.082 L 5.75 9.648 L 4.735 9.648 L 4.54 10.082 C 4.528 10.105 4.511 10.124 4.488 10.138 C 4.465 10.153 4.44 10.159 4.412 10.159 Z M 4.84 9.418 L 5.646 9.418 L 5.246 8.516 L 4.84 9.418 Z" style="fill: rgb(63, 182, 224); white-space: pre;" transform="matrix(0.999982, 0.006932, -0.005254, 0.999982, 0.048314, -0.036167)"/>
  </g>
  <path d="M 22.159 8.769 L 17.095 8.318 L 1.453 32.048 L 6.537 32.582 L 22.159 8.769 Z" fill="#40B6E0" style="" transform="matrix(0.993153, -0.116824, 0.116824, 0.993153, -2.308209, 1.519252)"/>
  <path d="M 28.983 8.738 L 23.919 8.287 L 8.276 32.011 L 13.36 32.547 L 28.983 8.738 Z" fill="#40B6E0" style="" transform="matrix(0.993154, -0.116811, 0.116811, 0.993154, -2.257396, 2.315902)"/>
</svg>